<?xml version="1.0" encoding="iso-8859-1"?>
<!-- Uploaded to: SVG Repo, www.svgrepo.com, Generator: SVG Repo Mixer Tools -->
<svg version="1.1" id="Layer_1" xmlns="http://www.w3.org/2000/svg" xmlns:xlink="http://www.w3.org/1999/xlink" 
	 viewBox="0 0 512 512" xml:space="preserve">
<g transform="translate(1 1)">
	<path style="fill:#FFE100;" d="M391.533,357.4L391.533,357.4c-92.16,11.093-183.467,11.093-273.067,0V99.693
		c86.187-42.667,186.88-42.667,273.067,0V357.4z"/>
	<path style="fill:#63D3FD;" d="M391.533,306.2c-90.453-11.093-184.32-11.093-273.067,0v-76.8
		c88.747-11.093,182.613-11.093,273.067,0V306.2z"/>
	<path style="fill:#FFE100;" d="M391.533,333.507V357.4c-92.16,11.093-183.467,11.093-273.067,0v-23.893
		C51.907,343.747,7.533,362.52,7.533,383c0,33.28,110.933,59.733,247.467,59.733S502.467,416.28,502.467,383
		C502.467,362.52,458.093,343.747,391.533,333.507"/>
	<path style="fill:#FFA800;" d="M391.533,357.4L391.533,357.4V99.693l0,0C344.6,75.8,293.4,65.56,242.2,67.267
		c42.667,1.707,84.48,11.947,123.733,31.573l0,0V357.4H391.533z"/>
	<path style="fill:#3DB9F9;" d="M365.933,229.4L365.933,229.4v74.24c8.533,0.853,17.067,1.707,25.6,2.56v-76.8"/>
	<path style="fill:#FFA800;" d="M391.533,333.507v5.12c52.053,11.093,85.333,27.307,85.333,45.227
		c0,31.573-104.107,58.027-234.667,59.733c4.267,0,8.533,0,12.8,0c136.533,0,247.467-26.453,247.467-59.733
		C502.467,362.52,458.093,343.747,391.533,333.507"/>
	<g>
		<path style="fill:#FFFFFF;" d="M118.467,357.4L118.467,357.4V99.693C165.4,75.8,216.6,65.56,267.8,67.267
			c-42.667,1.707-84.48,11.947-123.733,31.573V357.4H118.467z"/>
		<path style="fill:#FFFFFF;" d="M118.467,333.507v5.12C66.413,348.867,33.133,365.08,33.133,383
			c0,31.573,104.107,58.027,234.667,59.733c-4.267,0-8.533,0-12.8,0C118.467,442.733,7.533,416.28,7.533,383
			C7.533,361.667,51.907,343.747,118.467,333.507"/>
	</g>
	<path d="M254.147,374.467c-46.08,0-92.16-2.56-136.533-8.533c-4.267-0.853-7.68-4.267-7.68-8.533V99.693
		c0-3.413,1.707-5.973,5.12-7.68C157.72,69.827,206.36,58.733,255,58.733s97.28,11.093,139.947,33.28
		c3.413,1.707,5.12,4.267,5.12,7.68V357.4c0,4.267-3.413,7.68-7.68,8.533C346.307,371.907,300.227,374.467,254.147,374.467z
		 M127,349.72c83.627,10.24,170.667,10.24,256,0V104.813C342.893,86.04,299.373,75.8,255,75.8s-87.893,10.24-128,29.013V349.72z"/>
	<path d="M391.533,314.733h-0.853c-89.6-11.093-183.467-11.093-270.507,0c-2.56,0-5.12-0.853-6.827-1.707
		c-2.56-1.707-3.413-4.267-3.413-6.827v-76.8c0-4.267,3.413-7.68,7.68-8.533c88.747-11.093,184.32-11.093,275.627,0
		c4.267,0.853,7.68,4.267,7.68,8.533v76.8c0,2.56-0.853,5.12-2.56,6.827C395.8,313.88,393.24,314.733,391.533,314.733z
		 M254.147,289.133c42.667,0,86.187,2.56,128.853,7.68V237.08c-84.48-10.24-173.227-10.24-256,0v59.733
		C168.813,291.693,211.48,289.133,254.147,289.133z"/>
	<path d="M255,451.267c-127.147,0-256-23.04-256-68.267c0-34.133,74.24-51.2,117.76-58.027c2.56,0,5.12,0,6.827,1.707
		s3.413,4.267,3.413,6.827v17.067c83.627,10.24,170.667,10.24,256,0v-17.067c0-2.56,0.853-5.12,3.413-6.827
		c1.707-1.707,4.267-2.56,6.827-1.707C436.76,331.8,511,348.867,511,383C511,428.227,382.147,451.267,255,451.267z M109.933,342.893
		C35.693,356.547,16.067,374.467,16.067,383c0,21.333,91.307,51.2,238.933,51.2s238.933-29.867,238.933-51.2
		c0-8.533-19.627-26.453-93.867-40.107V357.4c0,4.267-3.413,7.68-7.68,8.533c-92.16,11.093-185.173,11.093-274.773,0
		c-4.267-0.853-7.68-4.267-7.68-8.533L109.933,342.893L109.933,342.893z"/>
</g>
</svg>
